<svg width="48" height="48" viewBox="0 0 48 48" fill="none" xmlns="http://www.w3.org/2000/svg">
<path fill-rule="evenodd" clip-rule="evenodd" d="M24 48C37.2548 48 48 37.2548 48 24C48 10.7452 37.2548 0 24 0C10.7452 0 0 10.7452 0 24C0 37.2548 10.7452 48 24 48Z" fill="#FF7171"/>
<path d="M7.21511 18.3636V30H9.60148V22.3977H9.69807L12.7094 29.9432H14.3344L17.3458 22.4261H17.4424V30H19.8288V18.3636H16.7947L13.5901 26.1818H13.4538L10.2492 18.3636H7.21511ZM27.9882 21.7102H30.3462C30.3121 19.6364 28.6076 18.2045 26.0166 18.2045C23.4655 18.2045 21.5962 19.6136 21.6076 21.7273C21.6019 23.4432 22.8121 24.4261 24.778 24.8977L26.0451 25.2159C27.3121 25.5227 28.0166 25.8864 28.0223 26.6705C28.0166 27.5227 27.2098 28.1023 25.9598 28.1023C24.6814 28.1023 23.761 27.5114 23.6814 26.3466H21.3007C21.3632 28.8636 23.1644 30.1648 25.9882 30.1648C28.8291 30.1648 30.4996 28.8068 30.5053 26.6761C30.4996 24.7386 29.0394 23.7102 27.0166 23.2557L25.9712 23.0057C24.9598 22.7727 24.1132 22.3977 24.1303 21.5625C24.1303 20.8125 24.7951 20.2614 25.9996 20.2614C27.1757 20.2614 27.8973 20.7955 27.9882 21.7102ZM31.9801 30H34.4403V26.6932L35.6506 25.2159L38.8381 30H41.7812L37.4119 23.5739L41.7301 18.3636H38.7812L34.5938 23.4943H34.4403V18.3636H31.9801V30Z" fill="white"/>
</svg>
